<svg width="21" height="22" viewBox="0 0 21 22" fill="none" xmlns="http://www.w3.org/2000/svg">
<path d="M10.9132 17.3576L15.6382 20.3576C16.2476 20.742 16.9976 20.1701 16.8195 19.467L15.4507 14.0858C15.4137 13.9366 15.4196 13.78 15.4677 13.6341C15.5158 13.4881 15.6042 13.3587 15.7226 13.2608L19.9601 9.72639C20.5132 9.26702 20.232 8.33889 19.5101 8.29202L13.9789 7.93576C13.8279 7.92698 13.6828 7.87443 13.5613 7.78453C13.4398 7.69462 13.347 7.57126 13.2945 7.42952L11.232 2.23577C11.1774 2.08567 11.0779 1.95602 10.9471 1.8644C10.8163 1.77278 10.6604 1.72363 10.5007 1.72363C10.341 1.72363 10.1852 1.77278 10.0544 1.8644C9.92353 1.95602 9.82407 2.08567 9.76948 2.23577L7.70698 7.42952C7.65441 7.57126 7.5617 7.69462 7.44016 7.78453C7.31862 7.87443 7.17353 7.92698 7.0226 7.93576L1.49135 8.29202C0.769478 8.33889 0.488228 9.26702 1.04135 9.72639L5.27885 13.2608C5.39729 13.3587 5.48565 13.4881 5.53375 13.6341C5.58186 13.78 5.58774 13.9366 5.55073 14.0858L4.2851 19.0733C4.06948 19.917 4.96948 20.6014 5.69135 20.142L10.0882 17.3576C10.2115 17.2792 10.3546 17.2376 10.5007 17.2376C10.6468 17.2376 10.7899 17.2792 10.9132 17.3576V17.3576Z" stroke="#413E3E" stroke-width="1.5" stroke-linecap="round" stroke-linejoin="round"/>
</svg>
