<svg width="46" height="46" viewBox="0 0 46 46" fill="none" xmlns="http://www.w3.org/2000/svg">
<path d="M7.1875 20.125H38.8125" stroke="#413E3E" stroke-width="2.875" stroke-linecap="round" stroke-linejoin="round"/>
<path d="M18.4719 27.3125H10.0625C9.3 27.3125 8.56873 27.0096 8.02957 26.4704C7.4904 25.9313 7.1875 25.2 7.1875 24.4375V11.5C7.1875 9.97501 7.7933 8.51247 8.87164 7.43414C9.94997 6.3558 11.4125 5.75 12.9375 5.75H38.8125V24.4375C38.8125 25.2 38.5096 25.9313 37.9704 26.4704C37.4313 27.0096 36.7 27.3125 35.9375 27.3125H27.5281C27.323 27.3131 27.1204 27.3576 26.9339 27.443C26.7474 27.5284 26.5814 27.6527 26.4469 27.8076C26.3125 27.9625 26.2127 28.1444 26.1543 28.341C26.096 28.5376 26.0804 28.7445 26.1086 28.9477L27.3125 37.375C27.3125 38.5187 26.8581 39.6156 26.0494 40.4244C25.2406 41.2331 24.1437 41.6875 23 41.6875C21.8563 41.6875 20.7594 41.2331 19.9506 40.4244C19.1419 39.6156 18.6875 38.5187 18.6875 37.375L19.8914 28.9477C19.9196 28.7445 19.904 28.5376 19.8457 28.341C19.7873 28.1444 19.6875 27.9625 19.5531 27.8076C19.4186 27.6527 19.2526 27.5284 19.0661 27.443C18.8796 27.3576 18.677 27.3131 18.4719 27.3125V27.3125Z" stroke="#413E3E" stroke-width="2.875" stroke-linecap="round" stroke-linejoin="round"/>
<path d="M33.0625 5.75V14.375" stroke="#413E3E" stroke-width="2.875" stroke-linecap="round" stroke-linejoin="round"/>
</svg>
