<svg width="24" height="24" viewBox="0 0 24 24" fill="none" xmlns="http://www.w3.org/2000/svg">
<path d="M21.2688 7.11249C20.9876 6.97471 20.669 6.9334 20.362 6.99495C20.0551 7.0565 19.777 7.21749 19.5707 7.453L16.5457 10.7134L13.3293 3.49988C13.3291 3.49688 13.3291 3.49389 13.3293 3.49089C13.2143 3.24144 13.0302 3.03016 12.7988 2.88207C12.5675 2.73398 12.2985 2.65527 12.0238 2.65527C11.7491 2.65527 11.4802 2.73398 11.2489 2.88207C11.0175 3.03016 10.8334 3.24144 10.7184 3.49089C10.7186 3.49389 10.7186 3.49688 10.7184 3.49988L7.502 10.7134L4.47696 7.453C4.26939 7.21744 3.99041 7.05632 3.68264 6.99424C3.37488 6.93217 3.05525 6.97256 2.7726 7.10925C2.48995 7.24594 2.25983 7.47141 2.11739 7.75121C1.97495 8.031 1.92803 8.34973 1.9838 8.65871C1.9838 8.66859 1.9838 8.67757 1.99009 8.68746L4.02774 18.0195C4.09047 18.3481 4.26584 18.6446 4.52365 18.8578C4.78145 19.071 5.10555 19.1876 5.44009 19.1875H18.6085C18.9429 19.1874 19.2668 19.0707 19.5244 18.8575C19.782 18.6443 19.9572 18.348 20.0199 18.0195L22.0576 8.68746C22.0576 8.67757 22.0576 8.66859 22.0639 8.65871C22.1207 8.34935 22.0735 8.02988 21.9297 7.75017C21.7858 7.47045 21.5534 7.24623 21.2688 7.11249ZM18.6139 17.7212L18.6085 17.75H5.43919L5.4338 17.7212L3.39884 8.40625L3.41142 8.42062L7.18485 12.4852C7.26565 12.5725 7.36686 12.6384 7.4794 12.6769C7.59194 12.7155 7.71229 12.7255 7.82966 12.7061C7.94703 12.6867 8.05775 12.6384 8.15188 12.5657C8.24601 12.4929 8.32061 12.398 8.36899 12.2893L12.0238 4.09375L15.6796 12.292C15.728 12.4007 15.8026 12.4956 15.8967 12.5684C15.9908 12.6411 16.1015 12.6894 16.2189 12.7088C16.3363 12.7282 16.4566 12.7182 16.5692 12.6796C16.6817 12.6411 16.7829 12.5752 16.8637 12.4878L20.6372 8.42332L20.6488 8.40625L18.6139 17.7212Z" fill="#413E3E"/>
</svg>
