<svg width="24" height="24" viewBox="0 0 24 24" fill="none" xmlns="http://www.w3.org/2000/svg">
<path d="M8.4292 2.65625V5.53125" stroke="#413E3E" stroke-width="1.4375" stroke-linecap="round" stroke-linejoin="round"/>
<path d="M11.3052 2.65625V5.53125" stroke="#413E3E" stroke-width="1.4375" stroke-linecap="round" stroke-linejoin="round"/>
<path d="M14.1797 2.65625V5.53125" stroke="#413E3E" stroke-width="1.4375" stroke-linecap="round" stroke-linejoin="round"/>
<path d="M3.39746 19.9062H19.21" stroke="#413E3E" stroke-width="1.4375" stroke-linecap="round" stroke-linejoin="round"/>
<path d="M8.00645 19.9062C6.63082 19.275 5.46528 18.2622 4.64828 16.9882C3.83128 15.7141 3.39715 14.2323 3.39746 12.7188V8.40625H19.21V12.7188C19.2103 14.2323 18.7761 15.7141 17.9591 16.9882C17.1421 18.2622 15.9766 19.275 14.601 19.9062" stroke="#413E3E" stroke-width="1.4375" stroke-linecap="round" stroke-linejoin="round"/>
<path d="M19.2112 8.40625C19.9737 8.40625 20.705 8.70915 21.2442 9.24832C21.7833 9.78748 22.0862 10.5188 22.0862 11.2812V12C22.0862 12.7625 21.7833 13.4938 21.2442 14.0329C20.705 14.5721 19.9737 14.875 19.2112 14.875H18.9058" stroke="#413E3E" stroke-width="1.4375" stroke-linecap="round" stroke-linejoin="round"/>
</svg>
