<svg width="25" height="24" viewBox="0 0 25 24" fill="none" xmlns="http://www.w3.org/2000/svg">
<path d="M15.3979 6.75C16.4335 6.75 17.2729 5.91053 17.2729 4.875C17.2729 3.83947 16.4335 3 15.3979 3C14.3624 3 13.5229 3.83947 13.5229 4.875C13.5229 5.91053 14.3624 6.75 15.3979 6.75Z" stroke="#413E3E" stroke-width="1.44" stroke-linecap="round" stroke-linejoin="round"/>
<path d="M0.772949 18.7501L7.62607 7.09698C7.69403 6.98646 7.78916 6.8952 7.9024 6.8319C8.01564 6.76859 8.14321 6.73535 8.27295 6.73535C8.40268 6.73535 8.53026 6.76859 8.6435 6.8319C8.75674 6.8952 8.85187 6.98646 8.91982 7.09698L15.7729 18.7501H0.772949Z" stroke="#413E3E" stroke-width="1.44" stroke-linecap="round" stroke-linejoin="round"/>
<path d="M4.74805 12H11.798" stroke="#413E3E" stroke-width="1.44" stroke-linecap="round" stroke-linejoin="round"/>
<path d="M13.5322 14.9437L16.626 9.71246C16.6939 9.60194 16.7891 9.51068 16.9023 9.44737C17.0155 9.38407 17.1431 9.35083 17.2729 9.35083C17.4026 9.35083 17.5302 9.38407 17.6434 9.44737C17.7566 9.51068 17.8518 9.60194 17.9197 9.71246L23.2729 18.75H15.7729" stroke="#413E3E" stroke-width="1.44" stroke-linecap="round" stroke-linejoin="round"/>
</svg>
