<svg width="24" height="24" viewBox="0 0 24 24" fill="none" xmlns="http://www.w3.org/2000/svg">
<path d="M6.24897 4.09375H16.7966C16.9373 4.0937 17.0749 4.13441 17.1929 4.21094C17.3109 4.28748 17.4042 4.39656 17.4615 4.525L21.154 13.15C21.2017 13.2592 21.2215 13.3784 21.2116 13.4971C21.2017 13.6158 21.1625 13.7302 21.0974 13.83C21.0324 13.9297 20.9436 14.0118 20.839 14.0688C20.7344 14.1257 20.6173 14.1558 20.4982 14.1562H2.54741C2.42831 14.1558 2.3112 14.1257 2.2066 14.0688C2.102 14.0118 2.01319 13.9297 1.94815 13.83C1.88312 13.7302 1.8439 13.6158 1.83402 13.4971C1.82414 13.3784 1.84391 13.2592 1.89155 13.15L5.58413 4.525C5.64143 4.39656 5.73471 4.28748 5.8527 4.21094C5.97069 4.13441 6.10833 4.0937 6.24897 4.09375V4.09375Z" stroke="#413E3E" stroke-width="1.4375" stroke-linecap="round" stroke-linejoin="round"/>
<path d="M11.5229 14.1562V19.9062" stroke="#413E3E" stroke-width="1.4375" stroke-linecap="round" stroke-linejoin="round"/>
<path d="M8.64795 19.9062H14.3979" stroke="#413E3E" stroke-width="1.4375" stroke-linecap="round" stroke-linejoin="round"/>
<path d="M17.9917 14.1562V17.75" stroke="#413E3E" stroke-width="1.4375" stroke-linecap="round" stroke-linejoin="round"/>
</svg>
