<svg width="24" height="24" viewBox="0 0 24 24" fill="none" xmlns="http://www.w3.org/2000/svg">
<path d="M14.7811 15.1894L12.6968 20.9215C12.6457 21.059 12.5538 21.1777 12.4333 21.2614C12.3129 21.3452 12.1697 21.3901 12.0229 21.3901C11.8762 21.3901 11.733 21.3452 11.6125 21.2614C11.4921 21.1777 11.4002 21.059 11.3491 20.9215L9.26473 15.1894C9.22832 15.0906 9.17091 15.0009 9.09646 14.9265C9.02201 14.852 8.93228 14.7946 8.83348 14.7582L3.10145 12.6738C2.9639 12.6228 2.84526 12.5308 2.76149 12.4104C2.67772 12.2899 2.63281 12.1467 2.63281 12C2.63281 11.8533 2.67772 11.7101 2.76149 11.5896C2.84526 11.4691 2.9639 11.3772 3.10145 11.3262L8.83348 9.24178C8.93228 9.20538 9.02201 9.14797 9.09646 9.07351C9.17091 8.99906 9.22832 8.90933 9.26473 8.81053L11.3491 3.0785C11.4002 2.94095 11.4921 2.82231 11.6125 2.73854C11.733 2.65477 11.8762 2.60986 12.0229 2.60986C12.1697 2.60986 12.3129 2.65477 12.4333 2.73854C12.5538 2.82231 12.6457 2.94095 12.6968 3.0785L14.7811 8.81053C14.8175 8.90933 14.875 8.99906 14.9494 9.07351C15.0239 9.14797 15.1136 9.20538 15.2124 9.24178L20.9444 11.3262C21.082 11.3772 21.2006 11.4691 21.2844 11.5896C21.3681 11.7101 21.4131 11.8533 21.4131 12C21.4131 12.1467 21.3681 12.2899 21.2844 12.4104C21.2006 12.5308 21.082 12.6228 20.9444 12.6738L15.2124 14.7582C15.1136 14.7946 15.0239 14.852 14.9494 14.9265C14.875 15.0009 14.8175 15.0906 14.7811 15.1894V15.1894Z" stroke="black" stroke-width="1.4375" stroke-linecap="round" stroke-linejoin="round"/>
</svg>
